<svg width="30" height="30" viewBox="0 0 30 30" fill="none" xmlns="http://www.w3.org/2000/svg">
<path d="M15.0171 0L28.0222 22.4732H2.01191L15.0171 0Z" fill="#7475FF"/>
<path d="M22.5256 2.00722V27.957L0 14.9821L22.5256 2.00722Z" fill="#7475FF"/>
<path d="M25.6016 4.42394L18.8696 29.4895L0.477563 11.1402L25.6016 4.42394Z" fill="#7475FF"/>
<path d="M27.9881 7.52684L14.9829 30L1.97777 7.52684L27.9881 7.52684Z" fill="#7475FF"/>
<path d="M29.4883 11.1402L11.0962 29.4895L4.36426 4.42395L29.4883 11.1402Z" fill="#7475FF"/>
<path d="M30 15.0179L7.4744 27.9928L7.4744 2.04301L30 15.0179Z" fill="#7475FF"/>
<path d="M29.4883 18.8955L4.36426 25.6118L11.0962 0.546285L29.4883 18.8955Z" fill="#7475FF"/>
<path d="M25.6016 25.6118L0.477563 18.8955L18.8696 0.54628L25.6016 25.6118Z" fill="#7475FF"/>
<path d="M21.75 19.5669C20.8518 20.8811 19.5862 21.8978 18.1133 22.4887C16.6404 23.0795 15.0264 23.2178 13.4753 22.8862C11.9243 22.5546 10.5058 21.7679 9.39934 20.6257C8.29288 19.4834 7.5481 18.0368 7.25919 16.4689C6.97029 14.901 7.15022 13.2821 7.77625 11.817C8.40228 10.352 9.44628 9.10645 10.7762 8.23802C12.1062 7.36959 13.6624 6.91725 15.248 6.9382C16.8336 6.95914 18.3774 7.45243 19.6842 8.35569L18.1286 10.6316C17.2694 10.0377 16.2544 9.7134 15.2119 9.69963C14.1694 9.68586 13.1463 9.98326 12.2719 10.5542C11.3975 11.1252 10.7111 11.9441 10.2995 12.9073C9.8879 13.8706 9.76959 14.9349 9.95954 15.9658C10.1495 16.9966 10.6392 17.9477 11.3666 18.6987C12.0941 19.4497 13.0267 19.9669 14.0464 20.1849C15.0662 20.403 16.1274 20.312 17.0958 19.9235C18.0641 19.5351 18.8962 18.8666 19.4868 18.0026L21.75 19.5669Z" fill="#FBFBFB"/>
<path d="M20.3866 16.6786L21.7451 19.5625L18.5822 19.3036L20.3866 16.6786Z" fill="#FBFBFB"/>
</svg>
