<svg width="520" height="109" viewBox="0 0 520 109" fill="none" xmlns="http://www.w3.org/2000/svg">
<rect width="520" height="109" rx="16" fill="#7475FF"/>
<path d="M149.632 38.784V72H145.264V47.232L134.224 72H131.152L120.064 47.184V72H115.696V38.784H120.4L132.688 66.24L144.976 38.784H149.632Z" fill="#4FF1AE"/>
<path d="M181.04 57.84C181.04 58.672 180.992 59.552 180.896 60.48H159.872C160.032 63.072 160.912 65.104 162.512 66.576C164.144 68.016 166.112 68.736 168.416 68.736C170.304 68.736 171.872 68.304 173.12 67.44C174.4 66.544 175.296 65.36 175.808 63.888H180.512C179.808 66.416 178.4 68.48 176.288 70.08C174.176 71.648 171.552 72.432 168.416 72.432C165.92 72.432 163.68 71.872 161.696 70.752C159.744 69.632 158.208 68.048 157.088 66C155.968 63.92 155.408 61.52 155.408 58.8C155.408 56.08 155.952 53.696 157.04 51.648C158.128 49.6 159.648 48.032 161.6 46.944C163.584 45.824 165.856 45.264 168.416 45.264C170.912 45.264 173.12 45.808 175.04 46.896C176.96 47.984 178.432 49.488 179.456 51.408C180.512 53.296 181.04 55.44 181.04 57.84ZM176.528 56.928C176.528 55.264 176.16 53.84 175.424 52.656C174.688 51.44 173.68 50.528 172.4 49.92C171.152 49.28 169.76 48.96 168.224 48.96C166.016 48.96 164.128 49.664 162.56 51.072C161.024 52.48 160.144 54.432 159.92 56.928H176.528ZM199.621 45.216C202.821 45.216 205.413 46.192 207.397 48.144C209.381 50.064 210.373 52.848 210.373 56.496V72H206.053V57.12C206.053 54.496 205.397 52.496 204.085 51.12C202.773 49.712 200.981 49.008 198.709 49.008C196.405 49.008 194.565 49.728 193.189 51.168C191.845 52.608 191.173 54.704 191.173 57.456V72H186.805V45.696H191.173V49.44C192.037 48.096 193.205 47.056 194.677 46.32C196.181 45.584 197.829 45.216 199.621 45.216ZM222.837 49.296V64.8C222.837 66.08 223.109 66.992 223.653 67.536C224.197 68.048 225.141 68.304 226.484 68.304H229.701V72H225.765C223.333 72 221.509 71.44 220.293 70.32C219.077 69.2 218.469 67.36 218.469 64.8V49.296H215.061V45.696H218.469V39.072H222.837V45.696H229.701V49.296H222.837ZM246.465 72.432C244.001 72.432 241.761 71.872 239.745 70.752C237.761 69.632 236.193 68.048 235.041 66C233.921 63.92 233.361 61.52 233.361 58.8C233.361 56.112 233.937 53.744 235.089 51.696C236.273 49.616 237.873 48.032 239.889 46.944C241.905 45.824 244.161 45.264 246.657 45.264C249.153 45.264 251.409 45.824 253.425 46.944C255.441 48.032 257.025 49.6 258.177 51.648C259.361 53.696 259.953 56.08 259.953 58.8C259.953 61.52 259.345 63.92 258.129 66C256.945 68.048 255.329 69.632 253.281 70.752C251.233 71.872 248.961 72.432 246.465 72.432ZM246.465 68.592C248.033 68.592 249.505 68.224 250.881 67.488C252.257 66.752 253.361 65.648 254.193 64.176C255.057 62.704 255.489 60.912 255.489 58.8C255.489 56.688 255.073 54.896 254.241 53.424C253.409 51.952 252.321 50.864 250.977 50.16C249.633 49.424 248.177 49.056 246.609 49.056C245.009 49.056 243.537 49.424 242.193 50.16C240.881 50.864 239.825 51.952 239.025 53.424C238.225 54.896 237.825 56.688 237.825 58.8C237.825 60.944 238.209 62.752 238.977 64.224C239.777 65.696 240.833 66.8 242.145 67.536C243.457 68.24 244.897 68.592 246.465 68.592ZM270.064 49.968C270.832 48.464 271.92 47.296 273.328 46.464C274.768 45.632 276.512 45.216 278.56 45.216V49.728H277.408C272.512 49.728 270.064 52.384 270.064 57.696V72H265.696V45.696H270.064V49.968ZM281.97 58.752C281.97 56.064 282.514 53.712 283.602 51.696C284.69 49.648 286.178 48.064 288.066 46.944C289.986 45.824 292.114 45.264 294.45 45.264C296.754 45.264 298.754 45.76 300.45 46.752C302.146 47.744 303.41 48.992 304.242 50.496V45.696H308.658V72H304.242V67.104C303.378 68.64 302.082 69.92 300.354 70.944C298.658 71.936 296.674 72.432 294.402 72.432C292.066 72.432 289.954 71.856 288.066 70.704C286.178 69.552 284.69 67.936 283.602 65.856C282.514 63.776 281.97 61.408 281.97 58.752ZM304.242 58.8C304.242 56.816 303.842 55.088 303.042 53.616C302.242 52.144 301.154 51.024 299.778 50.256C298.434 49.456 296.946 49.056 295.314 49.056C293.682 49.056 292.194 49.44 290.85 50.208C289.506 50.976 288.434 52.096 287.634 53.568C286.834 55.04 286.434 56.768 286.434 58.752C286.434 60.768 286.834 62.528 287.634 64.032C288.434 65.504 289.506 66.64 290.85 67.44C292.194 68.208 293.682 68.592 295.314 68.592C296.946 68.592 298.434 68.208 299.778 67.44C301.154 66.64 302.242 65.504 303.042 64.032C303.842 62.528 304.242 60.784 304.242 58.8ZM328.856 45.216C332.056 45.216 334.648 46.192 336.632 48.144C338.616 50.064 339.608 52.848 339.608 56.496V72H335.288V57.12C335.288 54.496 334.632 52.496 333.32 51.12C332.008 49.712 330.216 49.008 327.944 49.008C325.64 49.008 323.8 49.728 322.424 51.168C321.08 52.608 320.408 54.704 320.408 57.456V72H316.04V45.696H320.408V49.44C321.272 48.096 322.44 47.056 323.912 46.32C325.416 45.584 327.064 45.216 328.856 45.216ZM345.111 58.752C345.111 56.064 345.655 53.712 346.743 51.696C347.831 49.648 349.319 48.064 351.207 46.944C353.127 45.824 355.271 45.264 357.639 45.264C359.687 45.264 361.591 45.744 363.351 46.704C365.111 47.632 366.455 48.864 367.383 50.4V36.48H371.799V72H367.383V67.056C366.519 68.624 365.239 69.92 363.543 70.944C361.847 71.936 359.863 72.432 357.591 72.432C355.255 72.432 353.127 71.856 351.207 70.704C349.319 69.552 347.831 67.936 346.743 65.856C345.655 63.776 345.111 61.408 345.111 58.752ZM367.383 58.8C367.383 56.816 366.983 55.088 366.183 53.616C365.383 52.144 364.295 51.024 362.919 50.256C361.575 49.456 360.087 49.056 358.455 49.056C356.823 49.056 355.335 49.44 353.991 50.208C352.647 50.976 351.575 52.096 350.775 53.568C349.975 55.04 349.575 56.768 349.575 58.752C349.575 60.768 349.975 62.528 350.775 64.032C351.575 65.504 352.647 66.64 353.991 67.44C355.335 68.208 356.823 68.592 358.455 68.592C360.087 68.592 361.575 68.208 362.919 67.44C364.295 66.64 365.383 65.504 366.183 64.032C366.983 62.528 367.383 60.784 367.383 58.8ZM390.652 72.432C388.188 72.432 385.948 71.872 383.932 70.752C381.948 69.632 380.38 68.048 379.228 66C378.108 63.92 377.548 61.52 377.548 58.8C377.548 56.112 378.124 53.744 379.276 51.696C380.46 49.616 382.06 48.032 384.076 46.944C386.092 45.824 388.348 45.264 390.844 45.264C393.34 45.264 395.596 45.824 397.612 46.944C399.628 48.032 401.212 49.6 402.364 51.648C403.548 53.696 404.14 56.08 404.14 58.8C404.14 61.52 403.532 63.92 402.316 66C401.132 68.048 399.516 69.632 397.468 70.752C395.42 71.872 393.148 72.432 390.652 72.432ZM390.652 68.592C392.22 68.592 393.692 68.224 395.068 67.488C396.444 66.752 397.548 65.648 398.38 64.176C399.244 62.704 399.676 60.912 399.676 58.8C399.676 56.688 399.26 54.896 398.428 53.424C397.596 51.952 396.508 50.864 395.164 50.16C393.82 49.424 392.364 49.056 390.796 49.056C389.196 49.056 387.724 49.424 386.38 50.16C385.068 50.864 384.012 51.952 383.212 53.424C382.412 54.896 382.012 56.688 382.012 58.8C382.012 60.944 382.396 62.752 383.164 64.224C383.964 65.696 385.02 66.8 386.332 67.536C387.644 68.24 389.084 68.592 390.652 68.592Z" fill="#FBFBFB"/>
</svg>
