<svg width="160" height="160" viewBox="0 0 160 160" fill="none" xmlns="http://www.w3.org/2000/svg">
<path d="M80.091 0L149.452 119.857H10.7302L80.091 0Z" fill="#7475FF"/>
<path d="M120.137 10.7052V149.104L0 79.9045L120.137 10.7052Z" fill="#7475FF"/>
<path d="M136.542 23.5944L100.638 157.277L2.547 59.4146L136.542 23.5944Z" fill="#7475FF"/>
<path d="M149.27 40.1432L79.909 160L10.5481 40.1432H149.27Z" fill="#7475FF"/>
<path d="M157.271 59.4146L59.1799 157.277L23.2761 23.5944L157.271 59.4146Z" fill="#7475FF"/>
<path d="M160 80.0954L39.8635 149.295L39.8635 10.8961L160 80.0954Z" fill="#7475FF"/>
<path d="M157.271 100.776L23.2761 136.596L59.1799 2.91352L157.271 100.776Z" fill="#7475FF"/>
<path d="M136.542 136.596L2.547 100.776L100.638 2.91349L136.542 136.596Z" fill="#7475FF"/>
<path d="M116 104.357C111.209 111.366 104.46 116.788 96.6043 119.94C88.749 123.091 80.1408 123.829 71.8685 122.06C63.5961 120.291 56.031 116.096 50.1298 110.004C44.2287 103.911 40.2565 96.1965 38.7157 87.8342C37.1749 79.472 38.1345 70.838 41.4733 63.0242C44.8121 55.2104 50.3802 48.5677 57.4732 43.9361C64.5663 39.3045 72.8659 36.892 81.3225 37.0037C89.779 37.1154 98.0127 39.7463 104.982 44.5637L96.6857 56.7018C92.1034 53.5345 86.69 51.8048 81.1301 51.7314C75.5702 51.6579 70.1135 53.2441 65.45 56.2892C60.7865 59.3343 57.1258 63.7017 54.9306 68.839C52.7354 73.9763 52.1045 79.6528 53.1176 85.1507C54.1306 90.6486 56.7422 95.721 60.622 99.7264C64.5018 103.732 69.4756 106.49 74.9144 107.653C80.3532 108.816 86.0128 108.331 91.1774 106.259C96.342 104.187 100.78 100.622 103.929 96.0139L116 104.357Z" fill="#FBFBFB"/>
<path d="M108.728 88.9524L115.974 104.333L99.1049 102.952L108.728 88.9524Z" fill="#FBFBFB"/>
</svg>
