<svg width="40" height="40" viewBox="0 0 40 40" fill="none" xmlns="http://www.w3.org/2000/svg">
<circle cx="20" cy="20" r="20" fill="#FF7A00"/>
<path d="M25.9792 12.2467L29.1111 15.7709C29.2431 15.9193 29.2431 16.1616 29.1111 16.31L21.5278 24.8429L18.3056 25.2454C17.875 25.3001 17.5104 24.8898 17.559 24.4054L17.9167 20.7796L25.5 12.2467C25.6319 12.0983 25.8472 12.0983 25.9792 12.2467ZM31.6042 11.352L29.9097 9.4454C29.3819 8.85153 28.5243 8.85153 27.9931 9.4454L26.7639 10.8285C26.6319 10.9769 26.6319 11.2192 26.7639 11.3677L29.8958 14.8918C30.0278 15.0402 30.2431 15.0402 30.375 14.8918L31.6042 13.5087C32.1319 12.9109 32.1319 11.9459 31.6042 11.352V11.352ZM25.3333 22.5222V26.4995H14.2222V13.9971H22.2014C22.3125 13.9971 22.4167 13.9463 22.4965 13.8603L23.8854 12.2975C24.1493 12.0006 23.9618 11.4966 23.5903 11.4966H13.6667C12.7465 11.4966 12 12.3366 12 13.3719V27.1246C12 28.16 12.7465 29 13.6667 29H25.8889C26.809 29 27.5556 28.16 27.5556 27.1246V20.9594C27.5556 20.5413 27.1076 20.3342 26.8438 20.6273L25.4549 22.1901C25.3785 22.2799 25.3333 22.3971 25.3333 22.5222Z" fill="#FBFBFB"/>
</svg>
