<svg width="290" height="37" viewBox="0 0 290 37" fill="none" xmlns="http://www.w3.org/2000/svg">
<path d="M34.632 2.784V36H30.264V11.232L19.224 36H16.152L5.064 11.184V36H0.696V2.784H5.4L17.688 30.24L29.976 2.784H34.632Z" fill="#4FF1AE"/>
<path d="M66.0398 21.84C66.0398 22.672 65.9918 23.552 65.8958 24.48H44.8718C45.0318 27.072 45.9118 29.104 47.5118 30.576C49.1438 32.016 51.1118 32.736 53.4158 32.736C55.3038 32.736 56.8718 32.304 58.1198 31.44C59.3998 30.544 60.2958 29.36 60.8078 27.888H65.5118C64.8078 30.416 63.3998 32.48 61.2878 34.08C59.1758 35.648 56.5518 36.432 53.4158 36.432C50.9198 36.432 48.6798 35.872 46.6958 34.752C44.7438 33.632 43.2078 32.048 42.0878 30C40.9678 27.92 40.4078 25.52 40.4078 22.8C40.4078 20.08 40.9518 17.696 42.0398 15.648C43.1278 13.6 44.6478 12.032 46.5998 10.944C48.5838 9.824 50.8558 9.264 53.4158 9.264C55.9118 9.264 58.1198 9.808 60.0398 10.896C61.9598 11.984 63.4318 13.488 64.4558 15.408C65.5118 17.296 66.0398 19.44 66.0398 21.84ZM61.5278 20.928C61.5278 19.264 61.1598 17.84 60.4238 16.656C59.6878 15.44 58.6798 14.528 57.3998 13.92C56.1518 13.28 54.7598 12.96 53.2238 12.96C51.0158 12.96 49.1278 13.664 47.5598 15.072C46.0238 16.48 45.1438 18.432 44.9198 20.928H61.5278ZM84.6214 9.216C87.8214 9.216 90.4134 10.192 92.3974 12.144C94.3814 14.064 95.3734 16.848 95.3734 20.496V36H91.0534V21.12C91.0534 18.496 90.3974 16.496 89.0854 15.12C87.7734 13.712 85.9814 13.008 83.7094 13.008C81.4054 13.008 79.5654 13.728 78.1894 15.168C76.8454 16.608 76.1734 18.704 76.1734 21.456V36H71.8054V9.696H76.1734V13.44C77.0374 12.096 78.2054 11.056 79.6774 10.32C81.1814 9.584 82.8294 9.216 84.6214 9.216ZM107.837 13.296V28.8C107.837 30.08 108.109 30.992 108.653 31.536C109.197 32.048 110.141 32.304 111.484 32.304H114.701V36H110.765C108.333 36 106.509 35.44 105.293 34.32C104.077 33.2 103.469 31.36 103.469 28.8V13.296H100.061V9.696H103.469V3.072H107.837V9.696H114.701V13.296H107.837ZM131.465 36.432C129.001 36.432 126.761 35.872 124.745 34.752C122.761 33.632 121.193 32.048 120.041 30C118.921 27.92 118.361 25.52 118.361 22.8C118.361 20.112 118.937 17.744 120.089 15.696C121.273 13.616 122.873 12.032 124.889 10.944C126.905 9.824 129.161 9.264 131.657 9.264C134.153 9.264 136.409 9.824 138.425 10.944C140.441 12.032 142.025 13.6 143.177 15.648C144.361 17.696 144.953 20.08 144.953 22.8C144.953 25.52 144.345 27.92 143.129 30C141.945 32.048 140.329 33.632 138.281 34.752C136.233 35.872 133.961 36.432 131.465 36.432ZM131.465 32.592C133.033 32.592 134.505 32.224 135.881 31.488C137.257 30.752 138.361 29.648 139.193 28.176C140.057 26.704 140.489 24.912 140.489 22.8C140.489 20.688 140.073 18.896 139.241 17.424C138.409 15.952 137.321 14.864 135.977 14.16C134.633 13.424 133.177 13.056 131.609 13.056C130.009 13.056 128.537 13.424 127.193 14.16C125.881 14.864 124.825 15.952 124.025 17.424C123.225 18.896 122.825 20.688 122.825 22.8C122.825 24.944 123.209 26.752 123.977 28.224C124.777 29.696 125.833 30.8 127.145 31.536C128.457 32.24 129.897 32.592 131.465 32.592ZM155.064 13.968C155.832 12.464 156.92 11.296 158.328 10.464C159.768 9.632 161.512 9.216 163.56 9.216V13.728H162.408C157.512 13.728 155.064 16.384 155.064 21.696V36H150.696V9.696H155.064V13.968ZM166.97 22.752C166.97 20.064 167.514 17.712 168.602 15.696C169.69 13.648 171.178 12.064 173.066 10.944C174.986 9.824 177.114 9.264 179.45 9.264C181.754 9.264 183.754 9.76 185.45 10.752C187.146 11.744 188.41 12.992 189.242 14.496V9.696H193.658V36H189.242V31.104C188.378 32.64 187.082 33.92 185.354 34.944C183.658 35.936 181.674 36.432 179.402 36.432C177.066 36.432 174.954 35.856 173.066 34.704C171.178 33.552 169.69 31.936 168.602 29.856C167.514 27.776 166.97 25.408 166.97 22.752ZM189.242 22.8C189.242 20.816 188.842 19.088 188.042 17.616C187.242 16.144 186.154 15.024 184.778 14.256C183.434 13.456 181.946 13.056 180.314 13.056C178.682 13.056 177.194 13.44 175.85 14.208C174.506 14.976 173.434 16.096 172.634 17.568C171.834 19.04 171.434 20.768 171.434 22.752C171.434 24.768 171.834 26.528 172.634 28.032C173.434 29.504 174.506 30.64 175.85 31.44C177.194 32.208 178.682 32.592 180.314 32.592C181.946 32.592 183.434 32.208 184.778 31.44C186.154 30.64 187.242 29.504 188.042 28.032C188.842 26.528 189.242 24.784 189.242 22.8ZM213.856 9.216C217.056 9.216 219.648 10.192 221.632 12.144C223.616 14.064 224.608 16.848 224.608 20.496V36H220.288V21.12C220.288 18.496 219.632 16.496 218.32 15.12C217.008 13.712 215.216 13.008 212.944 13.008C210.64 13.008 208.8 13.728 207.424 15.168C206.08 16.608 205.408 18.704 205.408 21.456V36H201.04V9.696H205.408V13.44C206.272 12.096 207.44 11.056 208.912 10.32C210.416 9.584 212.064 9.216 213.856 9.216ZM230.111 22.752C230.111 20.064 230.655 17.712 231.743 15.696C232.831 13.648 234.319 12.064 236.207 10.944C238.127 9.824 240.271 9.264 242.639 9.264C244.687 9.264 246.591 9.744 248.351 10.704C250.111 11.632 251.455 12.864 252.383 14.4V0.48H256.799V36H252.383V31.056C251.519 32.624 250.239 33.92 248.543 34.944C246.847 35.936 244.863 36.432 242.591 36.432C240.255 36.432 238.127 35.856 236.207 34.704C234.319 33.552 232.831 31.936 231.743 29.856C230.655 27.776 230.111 25.408 230.111 22.752ZM252.383 22.8C252.383 20.816 251.983 19.088 251.183 17.616C250.383 16.144 249.295 15.024 247.919 14.256C246.575 13.456 245.087 13.056 243.455 13.056C241.823 13.056 240.335 13.44 238.991 14.208C237.647 14.976 236.575 16.096 235.775 17.568C234.975 19.04 234.575 20.768 234.575 22.752C234.575 24.768 234.975 26.528 235.775 28.032C236.575 29.504 237.647 30.64 238.991 31.44C240.335 32.208 241.823 32.592 243.455 32.592C245.087 32.592 246.575 32.208 247.919 31.44C249.295 30.64 250.383 29.504 251.183 28.032C251.983 26.528 252.383 24.784 252.383 22.8ZM275.652 36.432C273.188 36.432 270.948 35.872 268.932 34.752C266.948 33.632 265.38 32.048 264.228 30C263.108 27.92 262.548 25.52 262.548 22.8C262.548 20.112 263.124 17.744 264.276 15.696C265.46 13.616 267.06 12.032 269.076 10.944C271.092 9.824 273.348 9.264 275.844 9.264C278.34 9.264 280.596 9.824 282.612 10.944C284.628 12.032 286.212 13.6 287.364 15.648C288.548 17.696 289.14 20.08 289.14 22.8C289.14 25.52 288.532 27.92 287.316 30C286.132 32.048 284.516 33.632 282.468 34.752C280.42 35.872 278.148 36.432 275.652 36.432ZM275.652 32.592C277.22 32.592 278.692 32.224 280.068 31.488C281.444 30.752 282.548 29.648 283.38 28.176C284.244 26.704 284.676 24.912 284.676 22.8C284.676 20.688 284.26 18.896 283.428 17.424C282.596 15.952 281.508 14.864 280.164 14.16C278.82 13.424 277.364 13.056 275.796 13.056C274.196 13.056 272.724 13.424 271.38 14.16C270.068 14.864 269.012 15.952 268.212 17.424C267.412 18.896 267.012 20.688 267.012 22.8C267.012 24.944 267.396 26.752 268.164 28.224C268.964 29.696 270.02 30.8 271.332 31.536C272.644 32.24 274.084 32.592 275.652 32.592Z" fill="#FBFBFB"/>
</svg>
